<svg width="21" height="21" viewBox="0 0 21 21" fill="none" xmlns="http://www.w3.org/2000/svg">
<path d="M2.666 18.63C2.00597 18.0093 1.47734 17.2624 1.11148 16.4335C0.745622 15.6046 0.549986 14.7107 0.536182 13.8048C0.522378 12.8989 0.690688 11.9994 1.03112 11.1598C1.37156 10.3201 1.87719 9.55745 2.518 8.91696L9.318 2.11696C9.76614 1.6594 10.3006 1.29524 10.8903 1.04553C11.4801 0.795824 12.1135 0.665526 12.754 0.662176C13.3944 0.658825 14.0292 0.782488 14.6216 1.02601C15.2139 1.26953 15.7521 1.62809 16.205 2.08093C16.6579 2.53377 17.0166 3.07191 17.2602 3.66423C17.5038 4.25655 17.6275 4.8913 17.6243 5.53175C17.621 6.1722 17.4908 6.80565 17.2412 7.39547C16.9916 7.98528 16.6275 8.51975 16.17 8.96796L9.37 15.768C8.81341 16.2993 8.07349 16.5958 7.304 16.5958C6.5345 16.5958 5.79459 16.2993 5.238 15.768C4.69104 15.2193 4.3839 14.4762 4.3839 13.7015C4.3839 12.9267 4.69104 12.1836 5.238 11.635L10.673 6.19996C10.8616 6.0178 11.1142 5.91701 11.3764 5.91928C11.6386 5.92156 11.8894 6.02673 12.0748 6.21214C12.2602 6.39755 12.3654 6.64836 12.3677 6.91056C12.37 7.17275 12.2692 7.42536 12.087 7.61396L6.65 13.049C6.47901 13.2221 6.38312 13.4556 6.38312 13.699C6.38312 13.9423 6.47901 14.1758 6.65 14.349C6.82554 14.5153 7.05817 14.608 7.3 14.608C7.54183 14.608 7.77446 14.5153 7.95 14.349L14.75 7.54896C15.2706 7.01282 15.5593 6.2934 15.5538 5.54615C15.5482 4.79889 15.249 4.08381 14.7205 3.55541C14.1921 3.02701 13.4771 2.72772 12.7298 2.7222C11.9826 2.71669 11.2631 3.00541 10.727 3.52596L3.927 10.326C3.47525 10.7769 3.11869 11.314 2.87848 11.9054C2.63827 12.4968 2.51929 13.1304 2.52862 13.7686C2.53795 14.4069 2.67539 15.0367 2.93278 15.6208C3.19017 16.2049 3.56227 16.7314 4.027 17.169C4.97871 18.0082 6.21737 18.4482 7.48524 18.3973C8.75311 18.3465 9.95255 17.8087 10.834 16.896L18.818 8.91196C18.9102 8.81645 19.0206 8.74027 19.1426 8.68786C19.2646 8.63545 19.3958 8.60786 19.5286 8.60671C19.6614 8.60555 19.7931 8.63086 19.916 8.68114C20.0388 8.73142 20.1505 8.80567 20.2444 8.89956C20.3383 8.99346 20.4125 9.10511 20.4628 9.228C20.5131 9.3509 20.5384 9.48258 20.5372 9.61536C20.5361 9.74814 20.5085 9.87936 20.4561 10.0014C20.4037 10.1234 20.3275 10.2337 20.232 10.326L12.248 18.31C10.9157 19.6444 9.10863 20.396 7.223 20.4C5.53356 20.4143 3.90282 19.7809 2.666 18.63Z" fill="#D1D1D3"/>
</svg>
