<svg width="55" height="55" viewBox="0 0 55 55" fill="none" xmlns="http://www.w3.org/2000/svg">
<path d="M55 27.5H0V55H55V27.5Z" fill="#E57651"/>
<path d="M0 27.5C0 20.2065 2.89732 13.2118 8.05457 8.05457C13.2118 2.89732 20.2065 0 27.5 0C34.7935 0 41.7882 2.89732 46.9454 8.05457C52.1027 13.2118 55 20.2065 55 27.5H0Z" fill="#E57651"/>
<path d="M27.5 41.25C35.0939 41.25 41.25 35.0939 41.25 27.5C41.25 19.9061 35.0939 13.75 27.5 13.75C19.9061 13.75 13.75 19.9061 13.75 27.5C13.75 35.0939 19.9061 41.25 27.5 41.25Z" fill="#FFD100"/>
</svg>
