<svg width="55" height="55" viewBox="0 0 55 55" fill="none" xmlns="http://www.w3.org/2000/svg">
<path d="M54.9996 27.5C54.9996 20.2065 52.1023 13.2118 46.9451 8.05456C41.7878 2.89731 34.7931 -1.19209e-06 27.4996 -1.19209e-06C20.2062 -1.19209e-06 13.2114 2.89731 8.0542 8.05456C2.89695 13.2118 -0.000366211 20.2065 -0.000366211 27.5V55H27.4996C34.7931 55 41.7878 52.1027 46.9451 46.9454C52.1023 41.7882 54.9996 34.7935 54.9996 27.5Z" fill="#2B135C"/>
<path d="M55 0C43.5736 0 32.6151 4.53913 24.5354 12.6188C16.4558 20.6985 11.9166 31.6569 11.9166 43.0833C23.343 43.0833 34.3014 38.5442 42.3811 30.4645C50.4608 22.3848 55 11.4264 55 0Z" fill="#FFD100"/>
<path d="M-0.000366449 55C7.29309 55 14.2878 52.1027 19.4451 46.9454C24.6023 41.7882 27.4996 34.7935 27.4996 27.5C20.2062 27.5 13.2114 30.3973 8.0542 35.5546C2.89695 40.7118 -0.000367087 47.7065 -0.000366449 55Z" fill="#E57651"/>
</svg>
