<svg width="55" height="55" viewBox="0 0 55 55" fill="none" xmlns="http://www.w3.org/2000/svg">
<path d="M55 27.5C55 34.7935 52.1027 41.7882 46.9454 46.9454C41.7882 52.1027 34.7935 55 27.5 55C20.2065 55 13.2118 52.1027 8.05457 46.9454C2.89732 41.7882 0 34.7935 0 27.5V0H27.5C34.7935 0 41.7882 2.89732 46.9454 8.05457C52.1027 13.2118 55 20.2065 55 27.5Z" fill="#2B135C"/>
<path d="M55 0C47.7065 0 40.7118 2.89732 35.5546 8.05457C30.3973 13.2118 27.5 20.2065 27.5 27.5C34.7935 27.5 41.7882 24.6027 46.9454 19.4454C52.1027 14.2882 55 7.29345 55 0Z" fill="#FFD100"/>
</svg>
