<svg width="55" height="55" viewBox="0 0 55 55" fill="none" xmlns="http://www.w3.org/2000/svg">
<path d="M27.4076 54.996C20.1386 54.996 13.1673 52.0989 8.02739 46.942C2.88744 41.7852 -0.000151564 34.791 -0.000151883 27.4981C-0.000152201 20.2052 2.88744 13.211 8.02739 8.05415C13.1673 2.8973 20.1386 0.000205113 27.4076 0.000204796L27.4076 54.996Z" fill="#E57651"/>
<path d="M27.412 -3.8147e-05C34.7288 -3.84668e-05 41.7459 2.89705 46.9196 8.0539C52.0934 13.2108 55 20.205 55 27.4978C55 34.7907 52.0934 41.7849 46.9196 46.9418C41.7459 52.0986 34.7288 54.9957 27.412 54.9957L27.412 -3.8147e-05Z" fill="#F9D161"/>
</svg>
