<svg width="18" height="18" viewBox="0 0 18 18" fill="none" xmlns="http://www.w3.org/2000/svg">
<path d="M9.25 2.02018C11.5833 2.02018 11.875 2.02018 12.8229 2.0931C15.2292 2.16602 16.3229 3.33268 16.3958 5.66602C16.4688 6.61393 16.4688 6.83268 16.4688 9.16602C16.4688 11.4993 16.4688 11.791 16.3958 12.666C16.3229 14.9993 15.1562 16.166 12.8229 16.2389C11.875 16.3118 11.6562 16.3118 9.25 16.3118C6.91667 16.3118 6.625 16.3118 5.75 16.2389C3.34375 16.166 2.25 14.9993 2.17708 12.666C2.10417 11.7181 2.10417 11.4993 2.10417 9.16602C2.10417 6.83268 2.10417 6.54102 2.17708 5.66602C2.25 3.33268 3.41667 2.16602 5.75 2.0931C6.625 2.02018 6.91667 2.02018 9.25 2.02018ZM9.25 0.416016C6.84375 0.416016 6.55208 0.416016 5.67708 0.488932C2.46875 0.634766 0.71875 2.38477 0.572917 5.5931C0.5 6.4681 0.5 6.75977 0.5 9.16602C0.5 11.5723 0.5 11.8639 0.572917 12.7389C0.71875 15.9473 2.46875 17.6973 5.67708 17.8431C6.55208 17.916 6.84375 17.916 9.25 17.916C11.6562 17.916 11.9479 17.916 12.8229 17.8431C16.0312 17.6973 17.7812 15.9473 17.9271 12.7389C18 11.8639 18 11.5723 18 9.16602C18 6.75977 18 6.4681 17.9271 5.5931C17.7812 2.38477 16.0312 0.634766 12.8229 0.488932C11.9479 0.416016 11.6562 0.416016 9.25 0.416016ZM9.25 4.64518C6.77083 4.64518 4.72917 6.68685 4.72917 9.16602C4.72917 11.6452 6.77083 13.6868 9.25 13.6868C11.7292 13.6868 13.7708 11.6452 13.7708 9.16602C13.7708 6.68685 11.7292 4.64518 9.25 4.64518ZM9.25 12.0827C7.64583 12.0827 6.33333 10.7702 6.33333 9.16602C6.33333 7.56185 7.64583 6.24935 9.25 6.24935C10.8542 6.24935 12.1667 7.56185 12.1667 9.16602C12.1667 10.7702 10.8542 12.0827 9.25 12.0827ZM13.9167 3.47852C13.3333 3.47852 12.8958 3.91602 12.8958 4.49935C12.8958 5.08268 13.3333 5.52018 13.9167 5.52018C14.5 5.52018 14.9375 5.08268 14.9375 4.49935C14.9375 3.91602 14.5 3.47852 13.9167 3.47852Z" fill="white"/>
</svg>
