<svg width="141" height="41" viewBox="0 0 141 41" fill="none" xmlns="http://www.w3.org/2000/svg">
<path d="M37.1321 8.55343C36.5717 7.78012 35.9633 7.06174 35.319 6.39055C40.0323 12.103 39.0742 22.7294 31.3567 30.6315C25.0045 37.1589 11.549 39.4288 4.61839 32.5049C-1.32967 26.6016 -1.32967 13.775 6.52392 6.11306C12.8927 -0.145961 22.497 -1.1383 29.768 2.29581C23.1842 -1.01505 15.0203 -0.696011 8.60288 3.78609C-0.579358 10.2557 -2.71636 22.7998 3.81003 31.8239C7.91061 37.499 14.4363 40.4507 21.02 40.3366C24.9464 40.2232 30.7225 38.7477 35.2846 40.6211C34.4182 36.0235 38.6342 30.8583 39.904 26.829C41.7522 20.9827 41.0012 13.8884 37.1321 8.55343Z" fill="white"/>
<path d="M35.3206 6.39602C34.9895 5.99528 34.6326 5.61707 34.2463 5.26704C32.9141 4.06129 31.3999 3.07106 29.7695 2.30127C31.8041 3.3246 33.6867 4.69375 35.3206 6.39602Z" fill="white"/>
<path d="M21.7143 20.3188C16.4012 25.6537 8.66295 25.9946 5.13998 22.4182C0.635213 17.8213 1.67505 11.351 6.69937 6.41326C12.0698 1.13532 19.6361 0.738096 23.1583 4.25673C27.2009 8.34301 27.0855 14.9267 21.7143 20.3188ZM34.9398 5.8456C34.651 5.61882 29.5113 0 20.3857 0C9.06714 0.0563432 -0.057772 9.08111 0.000275418 20.2054C0.000275418 24.1783 1.21282 27.8673 3.23445 30.9887C7.91192 37.459 20.213 38.1971 29.1064 30.6486C38.2893 22.9866 39.4438 10.2157 34.9398 5.8456Z" fill="white"/>
<path d="M80.979 23.8102C79.1875 23.8102 77.6818 22.4016 77.6818 20.5705C77.6818 18.8098 79.1151 17.3308 80.979 17.3308C82.7706 17.3308 84.2755 18.7393 84.2755 20.5705C84.2755 22.4016 82.8423 23.8102 80.979 23.8102ZM86.9271 16.8378C84.7772 13.598 80.405 12.7529 77.1802 14.7953C73.8844 16.9082 73.0237 21.2043 75.1027 24.3737C77.2525 27.6134 81.6233 28.4585 84.8481 26.4161C88.1454 24.3032 89.077 20.0775 86.9271 16.8378Z" fill="white"/>
<path d="M60.0527 14.1821H63.7792V24.1126H70.2289V27.2819H60.0527V14.1821Z" fill="white"/>
<path d="M129.277 25.345L131.356 22.9505C132.646 24.0069 134.15 24.4999 135.655 24.4999C136.659 24.4999 137.16 24.1477 137.16 23.5843C137.16 23.0209 136.73 22.7392 134.939 22.3166C132.072 21.6827 129.922 20.908 129.922 18.1613C129.922 15.6963 131.858 13.9355 135.083 13.9355C137.375 13.9355 139.095 14.499 140.6 15.6963L138.737 18.2317C137.519 17.3866 136.158 16.964 135.01 16.964C134.079 16.964 133.65 17.3161 133.65 17.8091C133.65 18.443 134.079 18.6543 135.942 19.0769C139.024 19.7107 140.887 20.6967 140.887 23.1617C140.887 25.838 138.737 27.4579 135.512 27.4579C133.147 27.5283 130.926 26.7536 129.277 25.345Z" fill="white"/>
<path d="M53.2441 15.6618C53.2441 16.7175 52.3125 17.6338 51.2376 17.6338C50.1626 17.6338 49.2296 16.7175 49.2296 15.6618C49.2296 14.6053 50.1626 13.6898 51.2376 13.6898C52.3842 13.6898 53.2441 14.5342 53.2441 15.6618Z" fill="white"/>
<path d="M53.1008 19.0312H49.5176V27.201H53.1008V19.0312Z" fill="white"/>
<path d="M118.431 23.7602C116.639 23.8306 115.063 22.4925 114.919 20.7318C114.848 18.9711 116.208 17.4216 118 17.2808C119.792 17.2103 121.369 18.5485 121.512 20.3092C121.656 22.0699 120.294 23.6194 118.431 23.7602ZM124.131 16.499C122.706 14.527 120.439 13.5015 118.151 13.5403C116.786 13.5797 114.779 14.0924 113.194 13.4424C113.495 15.0397 112.03 16.8342 111.588 18.2344C110.947 20.2655 111.207 22.7313 112.552 24.5849C114.84 27.7402 119.275 28.4698 122.465 26.2414C125.656 23.9933 126.398 19.6345 124.131 16.499Z" fill="white"/>
<path d="M93.0176 20.6851C93.0176 16.882 96.0274 13.8535 100.184 13.8535C102.549 13.8535 104.197 14.5578 105.559 15.7551L103.409 18.2905C102.477 17.5158 101.474 17.0228 100.184 17.0228C98.249 17.0228 96.7441 18.6427 96.7441 20.6851C96.7441 22.798 98.249 24.3474 100.327 24.3474C101.186 24.3474 101.903 24.1361 102.477 23.784V22.1641H99.8256V19.4878H105.989V25.4039C104.555 26.5307 102.62 27.4463 100.184 27.4463C96.17 27.5167 93.0176 24.6996 93.0176 20.6851Z" fill="white"/>
</svg>
