<svg width="160" height="48" viewBox="0 0 160 48" fill="none" xmlns="http://www.w3.org/2000/svg">
<path d="M41.9674 10.4894C46.3404 16.6246 47.1889 24.7832 45.1003 31.5059C43.6644 36.1399 38.8998 42.0794 39.8788 47.3661C34.7226 45.2123 28.1957 46.9093 23.7574 47.0398C16.3168 47.1703 8.94147 43.7764 4.30739 37.2495C-3.06796 26.8718 -0.653022 12.4474 9.72469 5.00681C20.1024 -2.36854 34.5268 0.0463956 41.9674 10.4894Z" fill="#182251"/>
<path d="M38.7054 6.70378C45.3628 12.839 44.7754 26.1538 35.442 35.8789C28.2624 43.3848 13.0548 45.9955 5.22261 38.0327C-1.50005 31.2448 -1.50006 16.4941 7.37648 7.68281C16.1877 -1.12845 30.4816 -0.867378 38.7054 6.70378Z" fill="#E57651"/>
<path d="M39.4878 7.35652C39.1615 7.09544 33.3526 0.63385 23.0401 0.63385C10.2475 0.699119 -0.0649605 11.0768 0.000308117 23.8695C0.000308117 28.4383 1.37095 32.6807 3.65535 36.2705C8.94211 43.7111 22.8443 44.5596 32.8957 35.8789C43.2734 27.0676 44.5788 12.3822 39.4878 7.35652Z" fill="#182251"/>
<path d="M26.1738 5.52896C30.7427 10.2283 30.6121 17.7995 24.5421 24C18.5374 30.1352 9.79143 30.5268 5.81004 26.4149C0.719088 21.1282 1.89392 13.6875 7.57229 8.00917C13.6423 1.93919 22.1925 1.48231 26.1738 5.52896Z" fill="#F9D161"/>
<mask id="mask0_6_1862" style="mask-type:alpha" maskUnits="userSpaceOnUse" x="2" y="2" width="28" height="28">
<path d="M26.1739 5.52896C30.7427 10.2283 30.6121 17.7995 24.5421 24C18.5374 30.1352 9.79143 30.5268 5.81004 26.4149C0.719088 21.1282 1.89392 13.6875 7.57229 8.00917C13.6423 1.93919 22.1925 1.48231 26.1739 5.52896Z" fill="#F9D161"/>
</mask>
<g mask="url(#mask0_6_1862)">
<path d="M29.2089 9.01509C29.0038 8.72789 28.7987 8.44068 28.5935 8.22528C24.4224 3.77364 15.4647 4.27624 9.10546 10.9537C4.79757 15.4771 2.95134 21.0058 4.3873 26.0318C3.77189 25.1702 3.22486 24.3086 2.88296 23.3752C1.72052 18.5646 3.56675 13.2513 7.73788 8.79969C14.0971 2.12222 23.0548 1.61962 27.2259 6.07126C28.0465 7.00467 28.6619 7.93808 29.2089 9.01509Z" fill="#E57651"/>
</g>
<path d="M8.25135 9.48211C14.458 3.23448 23.4008 2.89859 27.6053 7.26521C28.2059 7.86982 28.7398 8.5416 29.207 9.28057C28.6731 7.80264 27.8055 6.45906 26.6709 5.24985C22.6667 1.08477 13.8573 1.55502 7.65071 7.80264C2.71213 12.7739 1.11042 19.0215 3.9134 24.1271C2.24496 19.2902 3.9134 13.8487 8.25135 9.48211Z" fill="#182251"/>
<path d="M59.6771 18.0949C59.6771 19.2855 58.6453 20.3173 57.4547 20.3173C56.2642 20.3173 55.2324 19.2855 55.2324 18.0949C55.2324 16.9044 56.2642 15.8726 57.4547 15.8726C58.7246 15.8726 59.6771 16.825 59.6771 18.0949Z" fill="#182251"/>
<path d="M59.6769 22.2221H55.8672V31.7464H59.6769V22.2221Z" fill="#182251"/>
<path d="M98.3762 19.4858C95.9571 15.7683 91.0384 14.7985 87.4098 17.1421C83.7006 19.5666 82.7329 24.4964 85.0714 28.1332C87.4904 31.8507 92.4092 32.8205 96.0377 30.4768C99.747 28.0524 100.795 23.2034 98.3762 19.4858ZM91.6834 27.4866C89.6676 27.4866 87.9742 25.8703 87.9742 23.7691C87.9742 21.7487 89.5869 20.0515 91.6834 20.0515C93.6993 20.0515 95.3927 21.6679 95.3927 23.7691C95.3927 25.8703 93.78 27.4866 91.6834 27.4866Z" fill="#182251"/>
<path d="M67.2969 16.5076H71.7147V28.0596H79.3609V31.7464H67.2969V16.5076Z" fill="#182251"/>
<path d="M105.393 23.8499C105.393 19.4089 108.781 15.8726 113.461 15.8726C116.124 15.8726 117.979 16.695 119.512 18.0931L117.092 21.0537C116.043 20.1491 114.913 19.5734 113.461 19.5734C111.283 19.5734 109.588 21.4649 109.588 23.8499C109.588 26.317 111.283 28.1263 113.622 28.1263C114.591 28.1263 115.397 27.8796 116.043 27.4684V25.5769H113.058V22.4518H119.996V29.3599C118.383 30.6757 116.204 31.7449 113.461 31.7449C108.943 31.8271 105.393 28.5375 105.393 23.8499Z" fill="#182251"/>
<path d="M146.666 29.2617L149.053 26.4517C150.535 27.6914 152.263 28.2699 153.991 28.2699C155.144 28.2699 155.72 27.8567 155.72 27.1955C155.72 26.5343 155.226 26.2037 153.168 25.7078C149.876 24.964 147.407 24.0548 147.407 20.8315C147.407 17.9388 149.629 15.8726 153.333 15.8726C155.967 15.8726 157.942 16.5338 159.671 17.9388L157.531 20.9142C156.131 19.9224 154.568 19.4265 153.251 19.4265C152.181 19.4265 151.687 19.8398 151.687 20.4183C151.687 21.1621 152.181 21.4101 154.321 21.906C157.86 22.6498 160 23.8069 160 26.6996C160 29.8403 157.531 31.7412 153.827 31.7412C151.111 31.8238 148.559 30.9147 146.666 29.2617Z" fill="#182251"/>
<path d="M140.718 19.2869C139.109 17.0636 136.535 15.8726 134.041 15.952C132.512 16.0314 130.26 16.5872 128.49 15.8726C128.812 17.6989 127.203 19.6839 126.72 21.2719C125.996 23.5746 126.318 26.3536 127.766 28.418C130.34 31.9911 135.328 32.7851 138.867 30.3237C142.487 27.7034 143.292 22.7805 140.718 19.2869ZM134.363 27.4652C132.351 27.5446 130.582 26.036 130.421 24.051C130.34 22.0659 131.869 20.3191 133.88 20.1603C135.891 20.0809 137.661 21.5895 137.822 23.5746C137.983 25.5596 136.454 27.3064 134.363 27.4652Z" fill="#182251"/>
</svg>
