<svg width="28" height="28" viewBox="0 0 28 28" fill="none" xmlns="http://www.w3.org/2000/svg">
<path d="M0 27.9992C0 24.2856 1.47497 20.7241 4.10045 18.0982C6.72591 15.4723 10.2868 13.9971 13.9998 13.9971C17.7128 13.9971 21.2737 15.4723 23.8991 18.0982C26.5246 20.7241 27.9996 24.2856 27.9996 27.9992H0Z" fill="#29B9E0"/>
<path d="M1.8783 6.99642C3.10681 9.12463 4.87368 10.892 7.00141 12.1209C9.12913 13.3498 11.5428 13.997 13.9998 13.9975C16.4568 13.997 18.8704 13.3498 20.9982 12.1209C23.1259 10.892 24.8928 9.12463 26.1213 6.99642C24.8922 4.86909 23.125 3.10267 20.9973 1.87459C18.8697 0.646509 16.4563 0 13.9998 0C11.5432 0 9.1299 0.646509 7.00221 1.87459C4.87453 3.10267 3.10739 4.86909 1.8783 6.99642Z" fill="#FFD100"/>
</svg>
