<svg width="39" height="26" viewBox="0 0 39 26" fill="none" xmlns="http://www.w3.org/2000/svg">
<path d="M6.43791 24.2558C8.39623 23.115 10.0225 21.4743 11.1533 19.4985C12.2841 17.5228 12.8797 15.2815 12.8801 13C12.8797 10.7184 12.2841 8.47715 11.1533 6.50138C10.0225 4.52561 8.39623 2.88491 6.43791 1.74414C4.4804 2.88546 2.85499 4.5264 1.72495 6.50213C0.5949 8.47786 0 10.7188 0 13C0 15.2811 0.5949 17.522 1.72495 19.4978C2.85499 21.4735 4.4804 23.1144 6.43791 24.2558Z" fill="#12B0D9"/>
<path d="M25.7643 26C32.8801 26 38.6487 20.1797 38.6487 13C38.6487 5.8203 32.8801 0 25.7643 0C18.6484 0 12.8799 5.8203 12.8799 13C12.8799 20.1797 18.6484 26 25.7643 26Z" fill="#FFD100"/>
</svg>
