<svg width="38" height="24" viewBox="0 0 38 24" fill="none" xmlns="http://www.w3.org/2000/svg">
<path d="M25.335 24L25.335 0L-1.90735e-06 -1.03017e-06L-3.0351e-06 24L25.335 24Z" fill="#29B9E0"/>
<path d="M25.3304 -5.1517e-07C28.6906 -3.78539e-07 31.9132 1.26428 34.2892 3.51472C36.6652 5.76516 38.0001 8.8174 38.0001 12C38.0001 15.1826 36.6652 18.2348 34.2892 20.4853C31.9132 22.7357 28.6906 24 25.3304 24L25.3304 -5.1517e-07Z" fill="#29B9E0"/>
<path d="M-2.47123e-06 12C-2.78265e-06 18.6274 5.67144 24 12.6675 24C19.6636 24 25.335 18.6274 25.335 12C25.335 5.37258 19.6636 -2.30611e-07 12.6675 -5.15083e-07C5.67144 -7.99556e-07 -2.1598e-06 5.37258 -2.47123e-06 12Z" fill="#2B135C"/>
<path d="M6.33255 12.0002C6.33255 15.314 9.16827 18.0002 12.6663 18.0002C16.1643 18.0002 19.0001 15.314 19.0001 12.0002C19.0001 8.68654 16.1643 6.00024 12.6663 6.00024C9.16827 6.00024 6.33255 8.68654 6.33255 12.0002Z" fill="#FFD100"/>
</svg>
