<svg width="28" height="28" viewBox="0 0 28 28" fill="none" xmlns="http://www.w3.org/2000/svg">
<path d="M28 13.999H0V27.999H28V13.999Z" fill="#FF4E0A"/>
<path d="M0 14C0 10.287 1.475 6.72602 4.10051 4.10051C6.72602 1.475 10.287 0 14 0C17.713 0 21.274 1.475 23.8995 4.10051C26.525 6.72602 28 10.287 28 14H0Z" fill="#FF4E0A"/>
<path d="M28 13.999C28 17.7121 26.525 21.273 23.8995 23.8985C21.274 26.524 17.713 27.999 14 27.999C10.287 27.999 6.72602 26.524 4.10051 23.8985C1.475 21.273 0 17.7121 0 13.999H28Z" fill="#FFD100"/>
</svg>
