<svg width="323" height="73" viewBox="0 0 323 73" fill="none" xmlns="http://www.w3.org/2000/svg">
<path d="M323 1.06215L321.644 12.5293L312.391 5.6215L323 1.06215ZM1.76319 0.415977C2.54958 1.34478 3.38395 2.30457 4.26626 3.29164L2.77513 4.62451C1.88105 3.62428 1.03492 2.65097 0.236807 1.70832L1.76319 0.415977ZM9.50758 8.87666C11.2147 10.6134 13.0469 12.4038 15.0037 14.2318L13.6383 15.6933C11.6606 13.8457 9.80818 12.0355 8.08125 10.2787L9.50758 8.87666ZM20.7245 19.3641C22.6002 20.9809 24.5674 22.6146 26.6259 24.2555L25.3793 25.8195C23.3004 24.1624 21.3135 22.5122 19.4187 20.8791L20.7245 19.3641ZM32.7158 28.925C34.7302 30.4105 36.8189 31.8942 38.9817 33.3685L37.8551 35.0211C35.6716 33.5325 33.5627 32.0346 31.5287 30.5346L32.7158 28.925ZM45.4003 37.5734C47.5271 38.9115 49.7168 40.2357 51.9694 41.5404L50.967 43.271C48.693 41.954 46.4823 40.6171 44.3353 39.2662L45.4003 37.5734ZM58.6946 45.2726C60.9171 46.4532 63.1945 47.6118 65.5268 48.7436L64.6537 50.5429C62.2991 49.4003 60 48.2307 57.7563 47.0388L58.6946 45.2726ZM72.4904 51.967C74.8025 52.9864 77.1639 53.9776 79.5744 54.9366L78.8351 56.7949C76.4016 55.8268 74.0177 54.8261 71.6836 53.797L72.4904 51.967ZM86.7672 57.647C89.1465 58.4942 91.5701 59.309 94.0379 60.0878L93.436 61.9951C90.9448 61.2089 88.4982 60.3864 86.0962 59.5311L86.7672 57.647ZM101.394 62.2634C103.831 62.9365 106.309 63.5738 108.826 64.1724L108.364 66.1182C105.822 65.514 103.322 64.8707 100.861 64.1912L101.394 62.2634ZM116.325 65.814C118.806 66.3109 121.323 66.7698 123.878 67.188L123.555 69.1617C120.977 68.7397 118.436 68.2766 115.932 67.775L116.325 65.814ZM131.475 68.2957C133.986 68.6172 136.529 68.8992 139.107 69.1394L138.921 71.1307C136.321 70.8884 133.754 70.6039 131.221 70.2795L131.475 68.2957ZM146.763 69.7221C149.289 69.8716 151.847 69.9809 154.434 70.048L154.382 72.0473C151.773 71.9796 149.193 71.8694 146.645 71.7186L146.763 69.7221ZM162.113 70.1218C163.394 70.1134 164.682 70.0947 165.977 70.0654L166.023 72.0649C164.717 72.0944 163.418 72.1133 162.126 72.1218L162.113 70.1218ZM165.977 70.0654C167.329 70.0348 168.674 69.9933 170.01 69.9411L170.088 71.9396C168.741 71.9922 167.386 72.034 166.023 72.0649L165.977 70.0654ZM178.019 69.4964C180.716 69.3018 183.379 69.0641 186.008 68.7856L186.219 70.7744C183.568 71.0553 180.882 71.295 178.163 71.4912L178.019 69.4964ZM193.969 67.8056C196.647 67.4294 199.287 67.0114 201.89 66.5541L202.236 68.524C199.611 68.9851 196.948 69.4068 194.247 69.7861L193.969 67.8056ZM209.762 65.0299C212.408 64.4696 215.011 63.8694 217.573 63.2324L218.055 65.1733C215.472 65.8159 212.845 66.4214 210.176 66.9865L209.762 65.0299ZM225.312 61.1621C227.917 60.4156 230.475 59.6319 232.985 58.8148L233.604 60.7166C231.072 61.541 228.491 62.3316 225.863 63.0848L225.312 61.1621ZM240.573 56.1932C243.121 55.2613 245.615 54.2963 248.055 53.3026L248.809 55.1548C246.347 56.1575 243.831 57.1312 241.26 58.0715L240.573 56.1932ZM255.417 50.147C257.896 49.0305 260.313 47.8866 262.667 46.7205L263.555 48.5127C261.179 49.6895 258.74 50.8439 256.238 51.9706L255.417 50.147ZM269.793 43.0245C272.186 41.7259 274.506 40.4081 276.751 39.0775L277.771 40.7981C275.504 42.1414 273.162 43.4717 270.747 44.7824L269.793 43.0245ZM283.583 34.8486C285.884 33.3619 288.093 31.8683 290.21 30.3767L291.362 32.0117C289.223 33.5186 286.992 35.0271 284.669 36.5284L283.583 34.8486ZM296.678 25.6149C298.882 23.9191 300.962 22.2384 302.919 20.5861L304.209 22.1142C302.229 23.786 300.125 25.4857 297.898 27.1999L296.678 25.6149ZM308.906 15.2712C310.992 13.32 312.884 11.4358 314.58 9.64409L316.032 11.0188C314.307 12.8414 312.386 14.7542 310.272 16.7318L308.906 15.2712Z" fill="black"/>
</svg>
