<svg width="81" height="81" viewBox="0 0 81 81" fill="none" xmlns="http://www.w3.org/2000/svg">
<path d="M7.62939e-06 40.1152H40.053V80.1682H7.62939e-06V40.1152Z" fill="#F98126"/>
<path d="M40.0527 40.1152V80.1682C62.1984 80.0623 80.1057 62.155 80.1057 40.1152C80.1057 40.1152 62.1984 40.1152 40.0527 40.1152Z" fill="#0D9BA3"/>
<path d="M40.053 40.1152V80.1682C17.9073 80.1682 7.62939e-06 62.2609 7.62939e-06 40.1152C0.105968 40.1152 18.0132 40.1152 40.053 40.1152Z" fill="#F1BC47"/>
<path d="M40.0527 40.115V0.0620117C62.1984 0.0620117 80.1057 17.9693 80.1057 40.115C80.1057 40.115 62.1984 40.115 40.0527 40.115Z" fill="#F98126"/>
<path d="M40.053 40.115V0.0620117C17.9073 0.0620117 7.62939e-06 17.9693 7.62939e-06 40.115C0.105968 40.115 18.0133 40.115 40.053 40.115Z" fill="#0D9BA3"/>
<path fill-rule="evenodd" clip-rule="evenodd" d="M47.3675 26.1028H24.4013L24.4013 60.9774H47.3675V26.1028ZM24.4013 23.551C22.992 23.551 21.8495 24.6935 21.8495 26.1028V60.9774C21.8495 62.3867 22.992 63.5292 24.4013 63.5292H47.3675C48.7768 63.5292 49.9193 62.3867 49.9193 60.9774V26.1028C49.9193 24.6935 48.7768 23.551 47.3675 23.551H24.4013Z" fill="#182251"/>
<path fill-rule="evenodd" clip-rule="evenodd" d="M29.0796 19.2982C29.0796 17.1842 30.7933 15.4705 32.9073 15.4705H54.1723C56.2863 15.4705 58 17.1842 58 19.2982V51.6209C58 53.7349 56.2863 55.4486 54.1723 55.4486H48.6434V52.8968H54.1723C54.877 52.8968 55.4482 52.3256 55.4482 51.6209V19.2982C55.4482 18.5935 54.877 18.0223 54.1723 18.0223H32.9073C32.2027 18.0223 31.6314 18.5935 31.6314 19.2982V24.4018H29.0796V19.2982Z" fill="#182251"/>
<path fill-rule="evenodd" clip-rule="evenodd" d="M27.8037 35.034C27.8037 34.3293 28.375 33.7581 29.0796 33.7581H41.8386C42.5433 33.7581 43.1145 34.3293 43.1145 35.034C43.1145 35.7386 42.5433 36.3099 41.8386 36.3099H29.0796C28.375 36.3099 27.8037 35.7386 27.8037 35.034Z" fill="#182251"/>
<path fill-rule="evenodd" clip-rule="evenodd" d="M27.8037 40.1377C27.8037 39.4331 28.375 38.8618 29.0796 38.8618H41.8386C42.5433 38.8618 43.1145 39.4331 43.1145 40.1377C43.1145 40.8424 42.5433 41.4136 41.8386 41.4136H29.0796C28.375 41.4136 27.8037 40.8424 27.8037 40.1377Z" fill="#182251"/>
<path fill-rule="evenodd" clip-rule="evenodd" d="M27.8037 45.2412C27.8037 44.5366 28.375 43.9653 29.0796 43.9653H41.8386C42.5433 43.9653 43.1145 44.5366 43.1145 45.2412C43.1145 45.9459 42.5433 46.5171 41.8386 46.5171H29.0796C28.375 46.5171 27.8037 45.9459 27.8037 45.2412Z" fill="#182251"/>
</svg>
