<svg width="324" height="72" viewBox="0 0 324 72" fill="none" xmlns="http://www.w3.org/2000/svg">
<path d="M323.5 71.0648L322.144 59.5977L312.891 66.5055L323.5 71.0648ZM2.26319 71.711C3.04958 70.7822 3.88395 69.8224 4.76626 68.8353L3.27513 67.5024C2.38105 68.5027 1.53492 69.476 0.736807 70.4186L2.26319 71.711ZM10.0076 63.2503C11.7147 61.5135 13.5469 59.7232 15.5037 57.8951L14.1383 56.4337C12.1606 58.2813 10.3082 60.0914 8.58125 61.8483L10.0076 63.2503ZM21.2245 52.7628C23.1002 51.1461 25.0674 49.5123 27.1259 47.8714L25.8793 46.3075C23.8004 47.9646 21.8135 49.6147 19.9187 51.2479L21.2245 52.7628ZM33.2158 43.202C35.2302 41.7164 37.3189 40.2328 39.4817 38.7584L38.3551 37.1059C36.1716 38.5944 34.0627 40.0924 32.0287 41.5923L33.2158 43.202ZM45.9003 34.5535C48.0271 33.2155 50.2168 31.8912 52.4694 30.5866L51.467 28.8559C49.193 30.173 46.9823 31.5099 44.8353 32.8607L45.9003 34.5535ZM59.1946 26.8544C61.4171 25.6738 63.6945 24.5152 66.0268 23.3833L65.1537 21.584C62.7991 22.7266 60.5 23.8963 58.2563 25.0881L59.1946 26.8544ZM72.9904 20.1599C75.3025 19.1406 77.6639 18.1494 80.0744 17.1903L79.3351 15.332C76.9016 16.3002 74.5177 17.3008 72.1836 18.3299L72.9904 20.1599ZM87.2672 14.48C89.6465 13.6327 92.0701 12.818 94.5379 12.0391L93.936 10.1319C91.4448 10.9181 88.9982 11.7405 86.5962 12.5959L87.2672 14.48ZM101.894 9.86359C104.331 9.19047 106.809 8.55311 109.326 7.95451L108.864 6.00875C106.322 6.61295 103.822 7.25629 101.361 7.93576L101.894 9.86359ZM116.825 6.31298C119.306 5.81606 121.823 5.35717 124.378 4.93894L124.055 2.96522C121.477 3.38729 118.936 3.8504 116.432 4.35193L116.825 6.31298ZM131.975 3.83122C134.486 3.50977 137.029 3.2278 139.607 2.98759L139.421 0.996224C136.821 1.23857 134.254 1.52306 131.721 1.84742L131.975 3.83122ZM147.263 2.40488C149.789 2.25538 152.347 2.14609 154.934 2.079L154.882 0.0796729C152.273 0.147332 149.693 0.257564 147.145 0.408369L147.263 2.40488ZM162.613 2.00514C163.894 2.01354 165.182 2.03228 166.477 2.06158L166.523 0.0620939C165.217 0.0325465 163.918 0.01365 162.626 0.00517845L162.613 2.00514ZM166.477 2.06158C167.829 2.09217 169.174 2.13368 170.51 2.18584L170.588 0.187363C169.241 0.134778 167.886 0.0929308 166.523 0.0620939L166.477 2.06158ZM178.519 2.63056C181.216 2.82514 183.879 3.06289 186.508 3.34139L186.719 1.35252C184.068 1.07167 181.382 0.831938 178.663 0.635743L178.519 2.63056ZM194.469 4.3214C197.147 4.69751 199.787 5.11558 202.39 5.57282L202.736 3.603C200.111 3.14181 197.448 2.72016 194.747 2.34083L194.469 4.3214ZM210.262 7.09705C212.908 7.65733 215.511 8.25756 218.073 8.89454L218.555 6.95366C215.972 6.31108 213.345 5.7056 210.676 5.14044L210.262 7.09705ZM225.812 10.9648C228.417 11.7113 230.975 12.495 233.485 13.3121L234.104 11.4104C231.572 10.586 228.991 9.79534 226.363 9.0422L225.812 10.9648ZM241.073 15.9337C243.621 16.8656 246.115 17.8307 248.555 18.8244L249.309 16.9721C246.847 15.9694 244.331 14.9957 241.76 14.0554L241.073 15.9337ZM255.917 21.9799C258.396 23.0964 260.813 24.2404 263.167 25.4065L264.055 23.6143C261.679 22.4374 259.24 21.283 256.738 20.1563L255.917 21.9799ZM270.293 29.1024C272.686 30.401 275.006 31.7189 277.251 33.0495L278.271 31.3289C276.004 29.9856 273.662 28.6553 271.247 27.3445L270.293 29.1024ZM284.083 37.2783C286.384 38.765 288.593 40.2586 290.71 41.7503L291.862 40.1153C289.723 38.6084 287.492 37.0999 285.169 35.5986L284.083 37.2783ZM297.178 46.5121C299.382 48.2079 301.462 49.8886 303.419 51.5408L304.709 50.0128C302.729 48.341 300.625 46.6413 298.398 44.9271L297.178 46.5121ZM309.406 56.8558C311.492 58.8069 313.384 60.6912 315.08 62.4829L316.532 61.1081C314.807 59.2856 312.886 57.3727 310.772 55.3951L309.406 56.8558Z" fill="black"/>
</svg>
