<svg width="80" height="81" viewBox="0 0 80 81" fill="none" xmlns="http://www.w3.org/2000/svg">
<g clip-path="url(#clip0_13_849)">
<path d="M-0.105705 40.1152H39.9473V80.1682H-0.105705V40.1152Z" fill="#F98126"/>
<path d="M39.947 40.1152V80.1682C62.0927 80.0623 80 62.155 80 40.1152C80 40.1152 62.0927 40.1152 39.947 40.1152Z" fill="#0D9BA3"/>
<path d="M39.9473 40.1152V80.1682C17.8016 80.1682 -0.105705 62.2609 -0.105705 40.1152C0.000255585 40.1152 17.9075 40.1152 39.9473 40.1152Z" fill="#F9D161"/>
<path d="M39.947 40.115V0.0620117C62.0927 0.0620117 80 17.9693 80 40.115C80 40.115 62.0927 40.115 39.947 40.115Z" fill="#F98126"/>
<path d="M39.9473 40.115V0.0620117C17.8016 0.0620117 -0.105705 17.9693 -0.105705 40.115C0.000255585 40.115 17.9075 40.115 39.9473 40.115Z" fill="#0D9BA3"/>
<path d="M52.494 31.6665L46.2544 31.6665C45.7018 31.6665 45.1719 31.886 44.7812 32.2767C44.3905 32.6674 44.171 33.1973 44.171 33.7499C44.171 34.3024 44.3905 34.8323 44.7812 35.223C45.1719 35.6137 45.7018 35.8332 46.2544 35.8332L54.371 35.8332C55.6377 35.8332 56.6669 34.8061 56.6669 33.5415L56.6669 25.4165C56.6669 24.8632 56.447 24.3325 56.0558 23.9412C55.6645 23.5499 55.1338 23.3301 54.5804 23.3301C54.027 23.3301 53.4964 23.5499 53.1051 23.9412C52.7138 24.3325 52.494 24.8632 52.494 25.4165L52.494 31.6665Z" fill="#182251"/>
<path d="M27.4627 34.6415C29.6065 30.3145 34.1523 27.4999 39.2294 27.4999C43.9502 27.4999 48.2273 29.9311 50.5315 33.7915C51.1273 34.7915 52.4523 35.1374 53.4919 34.5645C53.7361 34.4356 53.9516 34.2585 54.1254 34.0439C54.2991 33.8293 54.4275 33.5816 54.5027 33.3159C54.5779 33.0502 54.5983 32.772 54.5628 32.4981C54.5273 32.2243 54.4365 31.9605 54.296 31.7228C51.2273 26.577 45.521 23.3332 39.2294 23.3332C32.4627 23.3332 26.4002 27.0874 23.544 32.854C23.0294 33.8915 23.4898 35.1353 24.571 35.629C25.6544 36.1228 26.9481 35.6811 27.4627 34.6415Z" fill="#182251"/>
<path fill-rule="evenodd" clip-rule="evenodd" d="M33.746 44.1665L25.6294 44.1665C24.3627 44.1665 23.3335 45.1936 23.3335 46.4582L23.3335 54.5832C23.3335 55.1366 23.5534 55.6673 23.9446 56.0586C24.3359 56.4498 24.8666 56.6697 25.42 56.6697C25.9734 56.6697 26.5041 56.4498 26.8953 56.0586C27.2866 55.6673 27.5065 55.1366 27.5065 54.5832L27.5065 48.3332L33.746 48.3332C34.2986 48.3332 34.8285 48.1137 35.2192 47.723C35.6099 47.3323 35.8294 46.8024 35.8294 46.2499C35.8294 45.6973 35.6099 45.1674 35.2192 44.7767C34.8285 44.386 34.2986 44.1665 33.746 44.1665Z" fill="#182251"/>
<path fill-rule="evenodd" clip-rule="evenodd" d="M55.4252 44.3686C54.3419 43.8749 53.0502 44.3165 52.5356 45.3561C50.3919 49.6832 45.8481 52.4978 40.771 52.4978C36.0502 52.4978 31.771 50.0665 29.469 46.204C29.1694 45.72 28.695 45.3698 28.1441 45.2263C27.5933 45.0827 27.0083 45.1568 26.5106 45.4332C25.469 46.004 25.1085 47.2769 25.7044 48.2749C28.7731 53.4207 34.4794 56.6645 40.771 56.6645C47.5377 56.6645 53.6002 52.9103 56.4544 47.1436C56.5932 46.8676 56.6659 46.563 56.6669 46.254C56.663 45.8537 56.5438 45.4629 56.3236 45.1286C56.1033 44.7942 55.7915 44.5303 55.4252 44.3686Z" fill="#182251"/>
</g>
<defs>
<clipPath id="clip0_13_849">
<rect width="80" height="80" fill="white" transform="matrix(-1 0 0 1 80 0.0620117)"/>
</clipPath>
</defs>
</svg>
