<svg width="18" height="15" viewBox="0 0 18 15" fill="none" xmlns="http://www.w3.org/2000/svg">
<path d="M6.00359 14.916C12.6077 14.916 16.2192 9.53032 16.2192 4.86032C16.2192 4.7073 16.216 4.55507 16.2089 4.40343C16.9099 3.90461 17.5193 3.28197 18 2.57352C17.3567 2.85486 16.6645 3.04432 15.9382 3.12974C16.6794 2.69224 17.2486 1.99986 17.5171 1.17463C16.8233 1.5796 16.055 1.87388 15.2374 2.03258C14.5819 1.34567 13.6488 0.916016 12.6164 0.916016C10.6334 0.916016 9.02539 2.49887 9.02539 4.44986C9.02539 4.72729 9.05703 4.99688 9.11834 5.25569C6.13456 5.10816 3.48855 3.70163 1.71791 1.56334C1.4092 2.08547 1.23146 2.69244 1.23146 3.33957C1.23146 4.56565 1.8654 5.64812 2.82934 6.28154C2.24039 6.26371 1.68706 6.10423 1.2032 5.83934C1.2024 5.85403 1.2024 5.86892 1.2024 5.8844C1.2024 7.59617 2.44022 9.02523 4.08288 9.34909C3.78134 9.43 3.46407 9.4735 3.13645 9.4735C2.90517 9.4735 2.68026 9.45077 2.46152 9.40982C2.91851 10.8138 4.2441 11.8357 5.8157 11.8645C4.58664 12.8126 3.03853 13.3774 1.35646 13.3774C1.06686 13.3774 0.781041 13.3612 0.5 13.3285C2.08892 14.3308 3.9756 14.916 6.00359 14.916Z" fill="white"/>
</svg>
