<svg width="19" height="14" viewBox="0 0 19 14" fill="none" xmlns="http://www.w3.org/2000/svg">
<path fill-rule="evenodd" clip-rule="evenodd" d="M3.62645 0.581284C6.27075 0.360926 12.147 0.360926 14.7913 0.581284C17.6559 0.801643 18.0232 2.49106 18.0232 7.04512C18.0232 11.5992 17.6559 13.3621 14.7913 13.509C12.147 13.6559 6.27075 13.6559 3.62645 13.509C0.761795 13.2886 0.394531 11.5992 0.394531 7.04512C0.394531 2.49106 0.761795 0.801643 3.62645 0.581284ZM8.45307 9.26003C7.78817 9.59248 7.00586 9.10899 7.00586 8.36561V5.72546C7.00586 4.98207 7.78817 4.49858 8.45307 4.83103L11.0932 6.1511C11.8303 6.51963 11.8303 7.57143 11.0932 7.93996L8.45307 9.26003Z" fill="white"/>
</svg>
